<?xml version="1.0" encoding="UTF-8"?>
<svg version="1.1" xmlns="http://www.w3.org/2000/svg" width="32" height="32">
<path d="M0 0 C0.66209473 -0.00095673 1.32418945 -0.00191345 2.00634766 -0.00289917 C3.40852961 -0.00358076 4.8107147 -0.00172792 6.21289062 0.00244141 C8.36595713 0.00779004 10.51881502 0.0024958 12.671875 -0.00390625 C14.03125046 -0.00324546 15.3906258 -0.00196429 16.75 0 C18.61785156 0.00169189 18.61785156 0.00169189 20.5234375 0.00341797 C23.375 0.1328125 23.375 0.1328125 24.375 1.1328125 C24.4741657 2.75538794 24.50579777 4.38221081 24.5078125 6.0078125 C24.50974609 7.48507812 24.50974609 7.48507812 24.51171875 8.9921875 C24.50785156 10.02859375 24.50398438 11.065 24.5 12.1328125 C24.50580078 13.68742187 24.50580078 13.68742187 24.51171875 15.2734375 C24.51042969 16.25828125 24.50914063 17.243125 24.5078125 18.2578125 C24.50668457 19.16789062 24.50555664 20.07796875 24.50439453 21.015625 C24.375 23.1328125 24.375 23.1328125 23.375 24.1328125 C21.16849344 24.23293651 18.95877614 24.2636243 16.75 24.265625 C16.08790527 24.26658173 15.42581055 24.26753845 14.74365234 24.26852417 C13.34147039 24.26920576 11.9392853 24.26735292 10.53710938 24.26318359 C8.38404287 24.25783496 6.23118498 24.2631292 4.078125 24.26953125 C2.71874954 24.26887046 1.3593742 24.26758929 0 24.265625 C-1.24523437 24.26449707 -2.49046875 24.26336914 -3.7734375 24.26220703 C-6.625 24.1328125 -6.625 24.1328125 -7.625 23.1328125 C-7.7241657 21.51023706 -7.75579777 19.88341419 -7.7578125 18.2578125 C-7.75910156 17.27296875 -7.76039063 16.288125 -7.76171875 15.2734375 C-7.75785156 14.23703125 -7.75398437 13.200625 -7.75 12.1328125 C-7.75580078 10.57820312 -7.75580078 10.57820312 -7.76171875 8.9921875 C-7.76042969 8.00734375 -7.75914062 7.0225 -7.7578125 6.0078125 C-7.75668457 5.09773437 -7.75555664 4.18765625 -7.75439453 3.25 C-7.47430191 -1.33294948 -3.81114892 0.00345213 0 0 Z M3.375 5.1328125 C6.0768576 8.2818837 6.0768576 8.2818837 9.375 9.1328125 C10.695 7.8128125 12.015 6.4928125 13.375 5.1328125 C10.075 5.1328125 6.775 5.1328125 3.375 5.1328125 Z M-2.625 8.1328125 C-2.625 11.7628125 -2.625 15.3928125 -2.625 19.1328125 C4.635 19.1328125 11.895 19.1328125 19.375 19.1328125 C19.375 15.5028125 19.375 11.8728125 19.375 8.1328125 C18.71113281 8.58914063 18.04726563 9.04546875 17.36328125 9.515625 C16.03876953 10.37800781 16.03876953 10.37800781 14.6875 11.2578125 C13.81738281 11.83789062 12.94726562 12.41796875 12.05078125 13.015625 C9.375 14.1328125 9.375 14.1328125 6.78125 13.4453125 C5.9871875 13.0121875 5.193125 12.5790625 4.375 12.1328125 C3.70855469 11.77960937 3.04210937 11.42640625 2.35546875 11.0625 C0.6953125 10.0859375 -0.96484375 9.109375 -2.625 8.1328125 Z " fill="#FFFFFF" transform="translate(7.625,3.8671875)"/>
</svg>
