<?xml version="1.0" encoding="UTF-8"?>
<svg version="1.1" xmlns="http://www.w3.org/2000/svg" width="32" height="32">
<path d="M0 0 C0.804375 -0.00128906 1.60875 -0.00257812 2.4375 -0.00390625 C3.283125 -0.00003906 4.12875 0.00382812 5 0.0078125 C6.2684375 0.00201172 6.2684375 0.00201172 7.5625 -0.00390625 C8.366875 -0.00261719 9.17125 -0.00132813 10 0 C10.7425 0.00112793 11.485 0.00225586 12.25 0.00341797 C14 0.1328125 14 0.1328125 15 1.1328125 C15.10012401 3.33931906 15.1308118 5.54903636 15.1328125 7.7578125 C15.13424759 8.75095459 15.13424759 8.75095459 15.13571167 9.76416016 C15.13639326 11.16634211 15.13454042 12.5685272 15.13037109 13.97070312 C15.12502246 16.12376963 15.1303167 18.27662752 15.13671875 20.4296875 C15.13605796 21.78906296 15.13477679 23.1484383 15.1328125 24.5078125 C15.13168457 25.75304687 15.13055664 26.99828125 15.12939453 28.28125 C15 31.1328125 15 31.1328125 14 32.1328125 C12.66956375 32.2311846 11.33406656 32.26359842 10 32.265625 C9.195625 32.26691406 8.39125 32.26820312 7.5625 32.26953125 C6.716875 32.26566406 5.87125 32.26179688 5 32.2578125 C4.154375 32.26167969 3.30875 32.26554687 2.4375 32.26953125 C1.633125 32.26824219 0.82875 32.26695313 0 32.265625 C-0.7425 32.26449707 -1.485 32.26336914 -2.25 32.26220703 C-4 32.1328125 -4 32.1328125 -5 31.1328125 C-5.10012401 28.92630594 -5.1308118 26.71658864 -5.1328125 24.5078125 C-5.13376923 23.84571777 -5.13472595 23.18362305 -5.13571167 22.50146484 C-5.13639326 21.09928289 -5.13454042 19.6970978 -5.13037109 18.29492188 C-5.12502246 16.14185537 -5.1303167 13.98899748 -5.13671875 11.8359375 C-5.13605796 10.47656204 -5.13477679 9.1171867 -5.1328125 7.7578125 C-5.13168457 6.51257813 -5.13055664 5.26734375 -5.12939453 3.984375 C-4.9338026 -0.32602831 -3.91990664 0.00595472 0 0 Z M-2 5.1328125 C-2 12.0628125 -2 18.9928125 -2 26.1328125 C2.62 26.1328125 7.24 26.1328125 12 26.1328125 C12 19.2028125 12 12.2728125 12 5.1328125 C7.38 5.1328125 2.76 5.1328125 -2 5.1328125 Z " fill="#FFFFFF" transform="translate(11,-0.1328125)"/>
</svg>
